HIERARCHY
ROOT Hips
{
	OFFSET 0.000000 0.000000 0.000000
	CHANNELS 6 Xposition Yposition Zposition Zrotation Yrotation Xrotation 
	JOINT LowerBack
	{
		OFFSET 0.000000 0.000000 0.000000
		CHANNELS 3 Zrotation Yrotation Xrotation
		JOINT Spine
		{
			OFFSET 0.028270 2.035590 -0.193380
			CHANNELS 3 Zrotation Yrotation Xrotation
			JOINT Spine1
			{
				OFFSET 0.056720 2.048850 -0.042750
				CHANNELS 3 Zrotation Yrotation Xrotation
				JOINT Neck
				{
					OFFSET 0.000000 0.000000 0.000000
					CHANNELS 3 Zrotation Yrotation Xrotation
					JOINT Neck1
					{
						OFFSET -0.054170 1.746240 0.172020
						CHANNELS 3 Zrotation Yrotation Xrotation
						JOINT Head
						{
							OFFSET 0.104070 1.761360 -0.123970
							CHANNELS 3 Zrotation Yrotation Xrotation
							End Site
							{
								OFFSET 0.000000 0.000000 0.000000
							}
						}
					}
				}
				JOINT LeftShoulder
				{
					OFFSET 0.000000 0.000000 0.000000
					CHANNELS 3 Zrotation Yrotation Xrotation
					JOINT LeftArm
					{
						OFFSET 3.362410 1.200890 -0.311210
						CHANNELS 3 Zrotation Yrotation Xrotation
						JOINT LeftForeArm
						{
							OFFSET 4.983000 -0.000000 -0.000000
							CHANNELS 3 Zrotation Yrotation Xrotation
							JOINT LeftHand
							{
								OFFSET 3.483560 -0.000000 -0.000000
								CHANNELS 3 Zrotation Yrotation Xrotation
								JOINT LeftFingerBase
								{
									OFFSET 0.000000 0.000000 0.000000
									CHANNELS 3 Zrotation Yrotation Xrotation
									JOINT LeftHandIndex1
									{
										OFFSET 0.715260 -0.000000 -0.000000
										CHANNELS 3 Zrotation Yrotation Xrotation
										End Site
										{
											OFFSET 0.000000 0.000000 0.000000
										}
									}
								}
								JOINT LThumb
								{
									OFFSET 0.000000 0.000000 0.000000
									CHANNELS 3 Zrotation Yrotation Xrotation
									End Site
									{
										OFFSET 0.000000 0.000000 0.000000
									}
								}
							}
						}
					}
				}
				JOINT RightShoulder
				{
					OFFSET 0.000000 0.000000 0.000000
					CHANNELS 3 Zrotation Yrotation Xrotation
					JOINT RightArm
					{
						OFFSET -3.136600 1.374050 -0.404650
						CHANNELS 3 Zrotation Yrotation Xrotation
						JOINT RightForeArm
						{
							OFFSET -5.241900 -0.000000 -0.000000
							CHANNELS 3 Zrotation Yrotation Xrotation
							JOINT RightHand
							{
								OFFSET -3.444170 -0.000000 -0.000000
								CHANNELS 3 Zrotation Yrotation Xrotation
								JOINT RightFingerBase
								{
									OFFSET 0.000000 0.000000 0.000000
									CHANNELS 3 Zrotation Yrotation Xrotation
									JOINT RightHandIndex1
									{
										OFFSET -0.622530 -0.000000 -0.000000
										CHANNELS 3 Zrotation Yrotation Xrotation
										End Site
										{
											OFFSET 0.000000 0.000000 0.000000
										}
									}
								}
								JOINT RThumb
								{
									OFFSET 0.000000 0.000000 0.000000
									CHANNELS 3 Zrotation Yrotation Xrotation
									End Site
									{
										OFFSET 0.000000 0.000000 0.000000
									}
								}
							}
						}
					}
				}
			}
		}
	}
}
}
MOTION
Frames: 7
Frame Time: 0.008333
5.170388 17.172579 -0.776752 70.062331 -74.640739 -32.621523 -9.297336 -1.598578 -5.486294 -2.692186 -1.141689 -3.884457 -5.345512 -1.264851 1.800560 7.347439 -10.493570 -13.347494 -3.165520 -0.156616 -1.908534 0.000000 0.000000 0.000000 0.367108 16.479556 3.056270 -63.696484 5.690735 -27.072578 -1.424032 -55.605579 -0.023173 19.603978 -3.766662 -0.675196 -0.183450 0.110910 0.000000 0.000000 0.000000 0.000000 0.000000 0.000000 0.000000 11.786107 -5.470917 0.984905 58.418052 2.083739 -31.456822 0.318958 76.018924 -0.093128 -19.093082 12.767465 -2.260843 0.233659 -0.461917 0.000000 0.000000 0.000000 0.000000 0.000000 0.000000 0.000000 
5.174191 17.171636 -0.782232 70.028856 -74.669080 -32.601959 -9.301932 -1.601840 -5.494306 -2.696404 -1.143830 -3.882657 -5.372419 -1.266339 1.791678 7.338266 -10.463643 -13.248613 -3.164231 -0.157776 -1.876800 0.000000 0.000000 0.000000 0.379459 16.302665 3.050314 -63.054283 5.533668 -27.332976 -1.426259 -55.622570 -0.024337 19.739357 -3.639710 -0.658001 -0.185256 0.112727 0.000000 0.000000 0.000000 0.000000 0.000000 0.000000 0.000000 11.760412 -5.497094 0.972343 58.679535 2.231718 -31.282612 0.322864 75.736500 -0.092466 -19.036255 12.807311 -2.260350 0.231637 -0.460288 0.000000 0.000000 0.000000 0.000000 0.000000 0.000000 0.000000 
5.174240 17.173161 -0.786114 69.992790 -74.742129 -32.652169 -9.280176 -1.598521 -5.534467 -2.693102 -1.140353 -3.883728 -5.398432 -1.262325 1.796880 7.334248 -10.452595 -13.141411 -3.156759 -0.158705 -1.839559 0.000000 0.000000 0.000000 0.390747 16.159270 3.035489 -62.434281 5.380351 -27.596107 -1.431472 -55.627632 -0.025475 19.854581 -3.513202 -0.639902 -0.187323 0.114600 0.000000 0.000000 0.000000 0.000000 0.000000 0.000000 0.000000 11.720140 -5.535489 0.952298 58.961146 2.368582 -31.033230 0.329265 75.385047 -0.091395 -18.925312 12.830560 -2.250451 0.229196 -0.458098 0.000000 0.000000 0.000000 0.000000 0.000000 0.000000 0.000000 
5.170738 17.177102 -0.788092 69.933270 -74.860472 -32.752971 -9.225018 -1.589075 -5.601244 -2.680943 -1.132322 -3.886980 -5.423556 -1.253775 1.814637 7.335855 -10.459134 -13.028559 -3.143974 -0.159430 -1.797956 0.000000 0.000000 0.000000 0.401688 16.050520 3.012633 -61.842629 5.232475 -27.853596 -1.438968 -55.632009 -0.026579 19.946258 -3.390412 -0.621501 -0.189635 0.116554 0.000000 0.000000 0.000000 0.000000 0.000000 0.000000 0.000000 11.667860 -5.583933 0.925332 59.250333 2.491226 -30.717306 0.337991 74.981834 -0.089975 -18.769790 12.839442 -2.232549 0.226492 -0.455431 0.000000 0.000000 0.000000 0.000000 0.000000 0.000000 0.000000 
5.163839 17.183294 -0.787947 69.832066 -75.020676 -32.886973 -9.133345 -1.574246 -5.690363 -2.659569 -1.120887 -3.892402 -5.448247 -1.241813 1.841719 7.343188 -10.476578 -12.910624 -3.127493 -0.160074 -1.752544 0.000000 0.000000 0.000000 0.415262 15.971854 2.983221 -61.284266 5.097959 -28.097781 -1.448024 -55.647039 -0.027632 20.013521 -3.274851 -0.603496 -0.192167 0.118583 0.000000 0.000000 0.000000 0.000000 0.000000 0.000000 0.000000 11.606899 -5.634416 0.892345 59.536704 2.584510 -30.349503 0.348721 74.551640 -0.088281 -18.582702 12.836295 -2.208845 0.223697 -0.452368 0.000000 0.000000 0.000000 0.000000 0.000000 0.000000 0.000000 
5.154204 17.191773 -0.785377 69.657517 -75.224852 -33.030180 -8.993856 -1.553063 -5.785313 -2.626789 -1.106054 -3.896944 -5.471785 -1.226159 1.876331 7.353578 -10.508143 -12.791665 -3.107212 -0.160525 -1.705113 0.000000 0.000000 0.000000 0.428656 15.924687 2.947800 -60.763835 4.967442 -28.321985 -1.457646 -55.674997 -0.028642 20.061426 -3.172380 -0.587087 -0.194855 0.120726 0.000000 0.000000 0.000000 0.000000 0.000000 0.000000 0.000000 11.533770 -5.690708 0.853996 59.813951 2.656000 -29.942237 0.360980 74.108068 -0.086419 -18.376520 12.827838 -2.181939 0.220920 -0.449103 0.000000 0.000000 0.000000 0.000000 0.000000 0.000000 0.000000 
5.141811 17.202201 -0.780413 69.401764 -75.467306 -33.171801 -8.808327 -1.526604 -5.881624 -2.583517 -1.089065 -3.901165 -5.495179 -1.208107 1.912892 7.366404 -10.541529 -12.668512 -3.085397 -0.161016 -1.655142 0.000000 0.000000 0.000000 0.446201 15.893065 2.908659 -60.282632 4.860532 -28.524206 -1.466763 -55.729286 -0.029592 20.094220 -3.083760 -0.572676 -0.197656 0.122925 0.000000 0.000000 0.000000 0.000000 0.000000 0.000000 0.000000 11.451916 -5.739653 0.811821 60.076497 2.682001 -29.515783 0.374165 73.679624 -0.084478 -18.165683 12.816809 -2.154031 0.218312 -0.445716 0.000000 0.000000 0.000000 0.000000 0.000000 0.000000 0.000000 
